<svg width="0" height="0" class="hidden">
  <symbol version="1.1" id="x" xmlns="http://www.w3.org/2000/svg" xmlns:xlink="http://www.w3.org/1999/xlink" viewBox="0 0 383.2 448">
    <path fill="var(--btn-option-clr)" d="M379.4,371.5c5.9,6.7,5.8,21.7,5.6,25.2c-0.6,4.1-4.7,12.4-9.7,17.1c-6.4,4.1-16.4,6.9-21.5,6.7c-4-0.9-18.2-4.5-23.6-10.6
	L198.7,261.1c-2-2.3-5.7-2.3-7.8,0l-131.5,148c-5.4,6.1-19.6,9.7-23.6,10.6c-5.2,0.4-15.1-2.7-21.5-6.7c-5.1-4.7-9.4-13.4-10.2-17.6
	c0-3.6,0.2-18,6.1-24.6c0,0,140.2-157.8,140.2-157.8c1.6-1.8,1.6-4.3,0-6.1c0,0-139.8-156.6-139.8-156.6c-2.5-3.9-5.9-12.3-5.8-23.9
	C7.9-4,41.9-0.6,58.7,11.1c1.4,0.6,131,147.5,132.2,148.4c2,2.3,5.7,2.3,7.8,0c1.5-1.1,130.5-147.8,132.3-148.5
	c18.5-11.3,52.8-14.5,53.5,17.6c0.2,9.7-3.6,18.4-4.7,20.8c-0.2,1.1-140,157.3-140.6,158.3c-1.6,1.8-1.6,4.3,0,6.1L379.4,371.5z"></path>
  </symbol>
  <symbol version="1.1" id="history" xmlns="http://www.w3.org/2000/svg" xmlns:xlink="http://www.w3.org/1999/xlink" viewBox="0 0 514.8 515.1">
    <path fill="var(--btn-option-clr)" d="M263.8,1.4c141.4,0,248.7,115,248.7,256s-112.7,256-254.1,256c-54.3,0-104.8-17-146.3-45.9c-23.3-16.8-18.1-30.1-7.9-44.6
	c10.1-14.5,21.4-24.6,37.7-12.8c30.6,22.3,76.2,41.7,117,41.7c106,0,192.5-88.4,192.5-194.4c0-106.9-87-193.5-193-193.5
	c-53.9,0-101,22.9-135.8,57.7l36.2,36.2c16.6,18,5.9,35.2-15.4,35.2H18.2c0,0-16.2-2.9-16.2-16.2L2.5,59.3c1-30.6,17.1-39.4,41-17
	l34,34c46.3-46.3,110.3-75,180.1-75L263.8,1.4L263.8,1.4z M257,120.5c4.4,0,18.8,21.8,23.7,38.6l0.2,92.3l63.9,62.8
	c9.3,16.8,10.7,36.1,9.1,37.5c-2.2,2.1-19.3,3.2-40.5-6.8l-72-69.7c-5.8-7.5-5.8-4.9-7-15.6V159.2
	C236.9,143.1,254.2,120.5,257,120.5z"/>
  </symbol>
  <symbol version="1.1" id="sun" xmlns="http://www.w3.org/2000/svg" xmlns:xlink="http://www.w3.org/1999/xlink" viewBox="0 0 515.3 516.6">
    <path fill="var(--btn-option-clr)" d="M257.3,166.7c-53,0-89.1,37.9-89.1,90s34.7,91.3,88.6,91.3s90-38.3,90-90.5S310.3,166.7,257.3,166.7z
	 M510.6,348.6c0,0-63.3-54.7-63.2-91.9c0.1-36.9,63.1-91,63.1-91l-9.8-23.7c0,0-82.9,6.4-109-19.7S372,13.3,372,13.3l-23.7-9.8
	c0,0-53.9,63.8-91,64c-37.2,0.2-91.9-63.2-91.9-63.2l-23.7,9.8c0,0,7.2,82.9-18.8,109c-26,26.2-109,19.7-109,19.7l-9.8,22.8
	c0,0,63.2,54.7,63.2,91.9c-0.1,36.9-63.1,91-63.1,91l9.8,23.7c0,0,82.9-6.4,109,19.7s19.7,109,19.7,109l23.7,9.8
	c0,0,54.1-63.2,91-63.2c36.9,0,91,63.1,91,63.1L372,501c0,0-6.4-82.9,19.7-109s109-19.7,109-19.7L510.6,348.6z M257.3,384.7
	c-70.7,0-127.1-57.3-127.1-127.1c0-70.7,57.3-127.1,127.1-127.1s127.1,57.3,127.1,127.1C384.4,328.3,328,384.7,257.3,384.7z"></path>
  </symbol>
  <symbol version="1.1" id="question-mark" xmlns="http://www.w3.org/2000/svg" xmlns:xlink="http://www.w3.org/1999/xlink" viewBox="0 0 661.8 958.2">
    <g transform="matrix(1, 0, 0, 1, -155.533585, -61.555183)">
      <path fill="var(--btn-option-clr)" d="M501.4,851.2h-45c-31.7,0-57.4,24.3-57.4,54.1v58.5c0,29.9,25.7,54.1,57.4,54.1h45c31.7,0,57.4-24.3,57.4-54.1
		v-58.5C558.7,875.4,533,851.2,501.4,851.2z"></path>
      <path fill="var(--btn-option-clr)" d="M184.4,348.8l82.9,10.8c26.3,3.4,51.3-12.4,60.7-38.3c12-32.7,28.6-58.5,49.9-77.3c30.2-26.6,67.8-40,112.8-40
		c46.6,0,83.7,12.8,111.2,38.3c27.5,25.6,41.2,56.2,41.2,92.1c0,25.8-7.7,49.4-23.2,70.8c-10,13.6-40.9,42.2-92.5,85.9
		c-51.7,43.7-86,83.1-103.2,118.1c-17.6,35.8-23.7,75.5-25.3,115.3c-1.3,34.1,24.7,62.5,57.4,62.5h47c29.8,0,54.5-23.9,57.2-54.9
		c1.9-22.3,5.5-39.2,10.8-50.7c9-19.7,32.2-45.7,69.5-78.1C713,540.8,760.1,491.4,782.2,455c22-36.3,33.1-74.8,33.1-115.5
		c0-73.5-29.9-138-89.9-193.4C665.5,90.7,584.8,63,483.4,63c-96.4,0-174.2,27.3-233.5,82c-50.5,46.6-81.2,101.8-92,165.5
		C154.5,329.1,166.7,346.5,184.4,348.8z"></path>
    </g>
  </symbol>
</svg>